<?xml version="1.0" encoding="UTF-8"?>
<svg width="512" height="512" viewBox="0 0 512 512" xmlns="http://www.w3.org/2000/svg">
  <defs>
    <!-- Gradient for depth -->
    <linearGradient id="mainGradient" x1="0%" y1="0%" x2="100%" y2="100%">
      <stop offset="0%" style="stop-color:#5865F2;stop-opacity:1" />
      <stop offset="100%" style="stop-color:#4752C4;stop-opacity:1" />
    </linearGradient>
    
    <!-- Inner glow gradient -->
    <linearGradient id="glowGradient" x1="0%" y1="0%" x2="100%" y2="100%">
      <stop offset="0%" style="stop-color:#7289DA;stop-opacity:1" />
      <stop offset="100%" style="stop-color:#5865F2;stop-opacity:1" />
    </linearGradient>
    
    <!-- Shadow -->
    <filter id="shadow">
      <feDropShadow dx="0" dy="8" stdDeviation="12" flood-opacity="0.25"/>
    </filter>
  </defs>
  
  <!-- Background circle - fills canvas like modern apps -->
  <circle cx="256" cy="256" r="240" fill="url(#mainGradient)" filter="url(#shadow)"/>
  
  <!-- Inner circle for depth -->
  <circle cx="256" cy="256" r="200" fill="url(#glowGradient)" opacity="0.3"/>
  
  <!-- Large, bold "P" - main identifier -->
  <g transform="translate(256, 256)">
    <!-- P letter - thick and bold for visibility -->
    <path
      d="M -60 -120 L -60 120 L -20 120 L -20 20 L 40 20 C 90 20 100 -10 100 -50 C 100 -90 90 -120 40 -120 Z M -20 -80 L 40 -80 C 60 -80 60 -60 60 -50 C 60 -40 60 -20 40 -20 L -20 -20 Z"
      fill="#FFFFFF"
    />
    
    <!-- Accent dot/checkmark - represents planning/completion -->
    <circle cx="70" cy="80" r="25" fill="#43B581"/>
    
    <!-- Small tick inside the circle -->
    <path
      d="M 60 80 L 68 88 L 82 70"
      stroke="#FFFFFF"
      stroke-width="6"
      stroke-linecap="round"
      stroke-linejoin="round"
      fill="none"
    />
  </g>
</svg>
